<?xml version="1.0"?>
<svg xmlns="http://www.w3.org/2000/svg" xmlns:xlink="http://www.w3.org/1999/xlink" xmlns:svgjs="http://svgjs.com/svgjs" version="1.1" width="512" height="512" x="0" y="0" viewBox="0 0 511.999 511.999" style="enable-background:new 0 0 512 512" xml:space="preserve" class=""><rect width="511.999" height="511.999" rx="20" ry="20" fill="#385898" shape="rounded" transform="matrix(0.83,0,0,0.83,43.51991439819338,43.51991439819338)"/><g transform="matrix(0.7,0,0,0.7,76.79970245361329,76.79984893798829)"><g xmlns="http://www.w3.org/2000/svg"><path d="m361.997 285h-211.995v131.996h211.994v-131.996zm-45 60h-121.995c-8.284 0-15-6.716-15-15s6.716-15 15-15h121.994c8.284 0 15 6.716 15 15 .001 8.285-6.715 15-14.999 15z" fill="#ffffff" data-original="#000000" style="" class=""/><path d="m60.002 446.998c0 24.813 20.187 45 45 45h5.001v5.001c0 8.284 6.716 15 15 15s15-6.716 15-15v-5.001h231.991v5.001c0 8.284 6.716 15 15 15s15-6.716 15-15v-5.001h5.002c24.813 0 45-20.187 45-45v-236.999h-391.994zm60-176.998c0-8.284 6.716-15 15-15h241.994c8.284 0 15 6.716 15 15v161.996c0 8.284-6.716 15-15 15h-241.994c-8.284 0-15-6.716-15-15z" fill="#ffffff" data-original="#000000" style="" class=""/><path d="m406.997 75h-301.995c-24.813 0-45 20.187-45 45v59.999h391.994v-59.999c.001-24.813-20.186-45-44.999-45zm-241.997 67.499c-8.284 0-15-6.716-15-15s6.716-15 15-15 15 6.716 15 15c0 8.285-6.716 15-15 15zm61 0c-8.284 0-15-6.716-15-15s6.716-15 15-15 15 6.716 15 15c0 8.285-6.716 15-15 15zm60.989 0c-8.284 0-15-6.716-15-15s6.716-15 15-15 15 6.716 15 15c0 8.285-6.716 15-15 15zm60.011 0c-8.284 0-15-6.716-15-15s6.716-15 15-15 15 6.716 15 15c0 8.285-6.716 15-15 15z" fill="#ffffff" data-original="#000000" style="" class=""/><path d="m361.995 0h-211.99c-24.813 0-45 20.187-45 45h301.99c0-24.813-20.187-45-45-45z" fill="#ffffff" data-original="#000000" style="" class=""/></g></g></svg>
