<?xml version="1.0"?>
<svg xmlns="http://www.w3.org/2000/svg" xmlns:xlink="http://www.w3.org/1999/xlink" xmlns:svgjs="http://svgjs.com/svgjs" version="1.1" width="512" height="512" x="0" y="0" viewBox="0 0 58.754 58.754" style="enable-background:new 0 0 512 512" xml:space="preserve" class=""><rect width="58.754" height="58.754" rx="20" ry="20" fill="#005aae" shape="rounded" transform="matrix(0.82,0,0,0.82,5.28786014556885,5.28786014556885)"/><g transform="matrix(0.7,0,0,0.7,8.813100814819336,8.813250160217287)">
<g xmlns="http://www.w3.org/2000/svg">
	<path style="" d="M56.909,6.635H45.848c-1.018,0-1.842,0.825-1.842,1.843v7.599h-9.217   c-1.018,0-1.843,0.825-1.843,1.843v8.855h-8.294c-1.019,0-1.844,0.825-1.844,1.843v9.677h-8.985c-1.018,0-1.843,0.825-1.843,1.844   v8.293H1.843C0.825,48.432,0,49.258,0,50.277c0,1.018,0.826,1.843,1.843,1.843h11.981c1.019,0,1.844-0.825,1.844-1.843v-8.294   h8.985c1.018,0,1.843-0.826,1.843-1.844v-9.678h8.294c1.018,0,1.844-0.824,1.844-1.843v-8.854h9.215   c1.02,0,1.845-0.825,1.845-1.844v-7.598h9.216c1.018,0,1.844-0.825,1.844-1.844C58.753,7.46,57.927,6.635,56.909,6.635z" fill="#ffffff" data-original="#010002" class=""/>
</g>
<g xmlns="http://www.w3.org/2000/svg">
</g>
<g xmlns="http://www.w3.org/2000/svg">
</g>
<g xmlns="http://www.w3.org/2000/svg">
</g>
<g xmlns="http://www.w3.org/2000/svg">
</g>
<g xmlns="http://www.w3.org/2000/svg">
</g>
<g xmlns="http://www.w3.org/2000/svg">
</g>
<g xmlns="http://www.w3.org/2000/svg">
</g>
<g xmlns="http://www.w3.org/2000/svg">
</g>
<g xmlns="http://www.w3.org/2000/svg">
</g>
<g xmlns="http://www.w3.org/2000/svg">
</g>
<g xmlns="http://www.w3.org/2000/svg">
</g>
<g xmlns="http://www.w3.org/2000/svg">
</g>
<g xmlns="http://www.w3.org/2000/svg">
</g>
<g xmlns="http://www.w3.org/2000/svg">
</g>
<g xmlns="http://www.w3.org/2000/svg">
</g>
</g></svg>
