<?xml version="1.0" encoding="iso-8859-1"?>
<!-- Generator: Adobe Illustrator 19.0.0, SVG Export Plug-In . SVG Version: 6.00 Build 0)  -->
<svg version="1.1" id="Capa_1" xmlns="http://www.w3.org/2000/svg" xmlns:xlink="http://www.w3.org/1999/xlink" x="0px" y="0px"
	 viewBox="0 0 512 512" style="enable-background:new 0 0 512 512;" xml:space="preserve">
<path style="fill:#0C4870;" d="M419.284,0h-30.905v512h30.905C470.278,512,512,470.278,512,419.284V92.716
	C512,41.722,470.278,0,419.284,0z"/>
<path style="fill:#0968A7;" d="M481.095,92.716v326.567c0,50.994-41.722,92.716-92.716,92.716H92.716
	C41.722,512,0,470.278,0,419.284V92.716C0,41.722,41.722,0,92.716,0h295.662C439.372,0,481.095,41.722,481.095,92.716z"/>
<path style="fill:#DEF1FF;" d="M286.905,169.98h-20.604l20.604,130.833v151.756c3.029,1.762,6.552,2.771,10.302,2.771
	c11.383,0,20.604-9.22,20.604-20.604V200.885C317.811,183.887,303.903,169.98,286.905,169.98z"/>
<path style="fill:#FFFFFF;" d="M297.207,200.885v233.851c0,7.623-4.141,14.278-10.302,17.832
	c-6.16-3.554-10.302-10.209-10.302-17.832V300.813h-41.207v133.924c0,11.384-9.22,20.604-20.604,20.604
	c-11.384,0-20.604-9.22-20.604-20.604V200.885c0-16.998,13.907-30.905,30.905-30.905h41.207
	C283.3,169.98,297.207,183.887,297.207,200.885z"/>
<path style="fill:#DEF1FF;" d="M256.536,56.67v82.394c22.509-0.278,40.672-18.615,40.672-41.197S279.045,56.948,256.536,56.67z"/>
<path style="fill:#FFFFFF;" d="M256.536,56.67c11.136,0.567,20.068,18.801,20.068,41.197s-8.932,40.63-20.068,41.197
	c-0.185,0.01-0.361,0.01-0.536,0.01c-22.757,0-41.207-18.451-41.207-41.207S233.243,56.66,256,56.66
	C256.175,56.66,256.35,56.66,256.536,56.67z"/>
<g>
</g>
<g>
</g>
<g>
</g>
<g>
</g>
<g>
</g>
<g>
</g>
<g>
</g>
<g>
</g>
<g>
</g>
<g>
</g>
<g>
</g>
<g>
</g>
<g>
</g>
<g>
</g>
<g>
</g>
</svg>
