<?xml version="1.0" encoding="iso-8859-1"?>
<!-- Generator: Adobe Illustrator 19.0.0, SVG Export Plug-In . SVG Version: 6.00 Build 0)  -->
<svg version="1.1" id="Capa_1" xmlns="http://www.w3.org/2000/svg" xmlns:xlink="http://www.w3.org/1999/xlink" x="0px" y="0px"
	 viewBox="0 0 512 512" style="enable-background:new 0 0 512 512;" xml:space="preserve">
<path style="fill:#0C4870;" d="M419.284,0h-30.905v512h30.905C470.278,512,512,470.278,512,419.284V92.716
	C512,41.722,470.278,0,419.284,0z"/>
<path style="fill:#0968A7;" d="M481.095,92.716v326.567c0,50.994-41.722,92.716-92.716,92.716H92.716
	C41.722,512,0,470.278,0,419.284V92.716C0,41.722,41.722,0,92.716,0h295.662C439.372,0,481.095,41.722,481.095,92.716z"/>
<path style="fill:#DEF1FF;" d="M256,56.67v82.394c22.509-0.278,40.672-18.615,40.672-41.197S278.509,56.948,256,56.67z"/>
<path style="fill:#FFFFFF;" d="M256,56.67c11.136,0.567,20.068,18.801,20.068,41.197s-8.932,40.63-20.068,41.197
	c-0.185,0.01-0.361,0.01-0.536,0.01c-22.757,0-41.207-18.451-41.207-41.207s18.451-41.207,41.207-41.207
	C255.639,56.66,255.815,56.66,256,56.67z"/>
<path style="fill:#DEF1FF;" d="M307.375,194.55c-2.946-13.99-15.411-24.57-30.246-24.57h-7.871l37.715,172.04h31.956L307.375,194.55
	z"/>
<path style="fill:#FFFFFF;" d="M306.973,342.02v95.292c0,9.962-8.077,18.028-18.028,18.028c-9.952,0-18.028-8.066-18.028-18.028
	V342.02h-30.905v95.292c0,9.962-8.077,18.028-18.028,18.028s-18.028-8.066-18.028-18.028V342.02H173.07l31.554-147.47
	c2.946-13.99,15.412-24.57,30.246-24.57h34.387c9.303,0,17.122,10.58,18.966,24.57L306.973,342.02z"/>
<g>
</g>
<g>
</g>
<g>
</g>
<g>
</g>
<g>
</g>
<g>
</g>
<g>
</g>
<g>
</g>
<g>
</g>
<g>
</g>
<g>
</g>
<g>
</g>
<g>
</g>
<g>
</g>
<g>
</g>
</svg>
